
<svg xmlns="http://www.w3.org/2000/svg" version="1.1" width="512px" height="512px" style="shape-rendering:geometricPrecision; text-rendering:geometricPrecision; image-rendering:optimizeQuality; fill-rule:evenodd; clip-rule:evenodd" xmlns:xlink="http://www.w3.org/1999/xlink">
<g><path style="opacity:0.942" fill="#000000" d="M 46.5,-0.5 C 122.167,-0.5 197.833,-0.5 273.5,-0.5C 289,4.17184 298.5,14.5052 302,30.5C 302.5,40.828 302.666,51.1613 302.5,61.5C 311.173,61.3336 319.84,61.5002 328.5,62C 333.062,63.6271 335.895,66.7938 337,71.5C 337.5,84.1623 337.667,96.8289 337.5,109.5C 350.06,112.365 361.893,117.031 373,123.5C 382.155,115.013 391.321,106.513 400.5,98C 406.882,95.598 412.882,96.2647 418.5,100C 430.333,111.833 442.167,123.667 454,135.5C 457.735,141.118 458.402,147.118 456,153.5C 447.833,163 439,171.833 429.5,180C 436.57,191.308 441.57,203.475 444.5,216.5C 457.504,216.333 470.504,216.5 483.5,217C 489.192,219.206 492.359,223.373 493,229.5C 493.667,246.833 493.667,264.167 493,281.5C 492.359,287.627 489.192,291.794 483.5,294C 470.504,294.5 457.504,294.667 444.5,294.5C 441.57,307.525 436.57,319.692 429.5,331C 439,339.167 447.833,348 456,357.5C 458.402,363.882 457.735,369.882 454,375.5C 442.167,387.333 430.333,399.167 418.5,411C 412.882,414.735 406.882,415.402 400.5,413C 391.321,404.487 382.155,395.987 373,387.5C 361.893,393.969 350.06,398.635 337.5,401.5C 337.667,414.171 337.5,426.838 337,439.5C 335.895,444.206 333.062,447.373 328.5,449C 319.84,449.5 311.173,449.666 302.5,449.5C 302.666,459.839 302.5,470.172 302,480.5C 298.5,496.495 289,506.828 273.5,511.5C 197.833,511.5 122.167,511.5 46.5,511.5C 29.1716,506.328 19.6716,494.661 18,476.5C 17.3333,357.5 17.3333,238.5 18,119.5C 19.4135,113.37 23.2469,111.204 29.5,113C 31.3333,113.5 32.5,114.667 33,116.5C 33.5,216.166 33.6667,315.833 33.5,415.5C 117.833,415.5 202.167,415.5 286.5,415.5C 286.667,287.833 286.5,160.166 286,32.5C 283.165,21.9998 276.332,16.1665 265.5,15C 193.469,14.0192 121.469,14.3525 49.5,16C 42,18.1667 37.1667,23 35,30.5C 33.7288,50.1237 33.0622,69.7904 33,89.5C 29.6234,93.749 25.4567,94.5823 20.5,92C 19.283,90.3523 18.4497,88.519 18,86.5C 17.0904,66.7995 17.4238,47.1329 19,27.5C 23.0071,12.9937 32.1737,3.66037 46.5,-0.5 Z M 302.5,76.5 C 308.833,76.5 315.167,76.5 321.5,76.5C 321.333,90.1707 321.5,103.837 322,117.5C 322.398,120.232 323.898,122.065 326.5,123C 335.029,125.065 343.362,127.732 351.5,131C 359.315,134.992 367.149,138.825 375,142.5C 376.627,142.375 378.127,141.875 379.5,141C 388.957,131.014 398.957,122.014 409.5,114C 420.014,124.347 430.348,134.847 440.5,145.5C 431.848,154.652 423.014,163.652 414,172.5C 412.743,174.513 411.909,176.679 411.5,179C 415.508,187.518 419.675,196.018 424,204.5C 426.872,212.783 429.539,221.116 432,229.5C 433.648,230.717 435.481,231.55 437.5,232C 450.829,232.5 464.163,232.667 477.5,232.5C 477.5,247.833 477.5,263.167 477.5,278.5C 464.163,278.333 450.829,278.5 437.5,279C 434.506,279.406 432.339,280.906 431,283.5C 429.071,291.287 426.738,298.954 424,306.5C 419.675,314.982 415.508,323.482 411.5,332C 411.909,334.321 412.743,336.487 414,338.5C 422.667,347.167 431.333,355.833 440,364.5C 440.667,365.167 440.667,365.833 440,366.5C 429.653,377.014 419.153,387.348 408.5,397.5C 398.985,388.151 389.318,378.984 379.5,370C 378.127,369.125 376.627,368.625 375,368.5C 367.149,372.175 359.315,376.008 351.5,380C 342.626,383.403 333.626,386.403 324.5,389C 323.107,390.171 322.273,391.671 322,393.5C 321.5,407.163 321.333,420.829 321.5,434.5C 315.167,434.5 308.833,434.5 302.5,434.5C 302.5,406.167 302.5,377.833 302.5,349.5C 323.464,348.126 342.131,340.96 358.5,328C 361.803,324.205 362.303,320.038 360,315.5C 358.237,314.056 356.237,313.056 354,312.5C 345.151,318.014 335.984,323.18 326.5,328C 318.988,330.535 311.322,332.369 303.5,333.5C 302.5,281.504 302.167,229.504 302.5,177.5C 347.347,184.347 372.013,210.347 376.5,255.5C 375.896,269.085 372.562,281.918 366.5,294C 369.486,303.195 374.652,304.695 382,298.5C 398.384,261.962 394.718,227.629 371,195.5C 352.928,174.714 330.094,163.381 302.5,161.5C 302.5,133.167 302.5,104.833 302.5,76.5 Z M 65.5,145.5 C 76.8333,145.5 88.1667,145.5 99.5,145.5C 99.5,157.167 99.5,168.833 99.5,180.5C 88.1667,180.5 76.8333,180.5 65.5,180.5C 65.5,168.833 65.5,157.167 65.5,145.5 Z M 142.5,145.5 C 154.167,145.5 165.833,145.5 177.5,145.5C 177.5,157.167 177.5,168.833 177.5,180.5C 165.833,180.5 154.167,180.5 142.5,180.5C 142.5,168.833 142.5,157.167 142.5,145.5 Z M 220.5,145.5 C 232.167,145.5 243.833,145.5 255.5,145.5C 255.5,157.167 255.5,168.833 255.5,180.5C 243.833,180.5 232.167,180.5 220.5,180.5C 220.5,168.833 220.5,157.167 220.5,145.5 Z M 33.5,431.5 C 117.833,431.5 202.167,431.5 286.5,431.5C 286.667,447.17 286.5,462.837 286,478.5C 283.165,489 276.332,494.834 265.5,496C 195.5,496.667 125.5,496.667 55.5,496C 42.7991,494.966 35.6324,488.132 34,475.5C 33.5001,460.837 33.3334,446.17 33.5,431.5 Z"/></g>
<g><path style="opacity:0.941" fill="#000000" d="M 55.5,45.5 C 73.5031,45.3334 91.5031,45.5001 109.5,46C 111.286,46.7845 112.786,47.9512 114,49.5C 115.64,68.0763 115.974,86.743 115,105.5C 114.215,107.286 113.049,108.786 111.5,110C 92.9237,111.64 74.257,111.974 55.5,111C 53.714,110.215 52.214,109.049 51,107.5C 49.3597,88.9237 49.0264,70.257 50,51.5C 51.3597,48.9774 53.193,46.9774 55.5,45.5 Z M 65.5,61.5 C 76.8333,61.5 88.1667,61.5 99.5,61.5C 99.5,72.8333 99.5,84.1667 99.5,95.5C 88.1667,95.5 76.8333,95.5 65.5,95.5C 65.5,84.1667 65.5,72.8333 65.5,61.5 Z"/></g>
<g><path style="opacity:0.937" fill="#000000" d="M 132.5,45.5 C 150.836,45.3334 169.17,45.5001 187.5,46C 190.381,47.2506 192.214,49.4173 193,52.5C 193.667,69.8333 193.667,87.1667 193,104.5C 192.167,108 190,110.167 186.5,111C 168.833,111.667 151.167,111.667 133.5,111C 131.376,109.878 129.543,108.378 128,106.5C 126.389,88.8862 126.056,71.2195 127,53.5C 128.104,50.2788 129.937,47.6122 132.5,45.5 Z M 142.5,61.5 C 154.167,61.5 165.833,61.5 177.5,61.5C 177.5,72.8333 177.5,84.1667 177.5,95.5C 165.833,95.5 154.167,95.5 142.5,95.5C 142.5,84.1667 142.5,72.8333 142.5,61.5 Z"/></g>
<g><path style="opacity:0.938" fill="#000000" d="M 210.5,45.5 C 228.836,45.3334 247.17,45.5001 265.5,46C 268.553,48.0514 270.386,50.8848 271,54.5C 271.667,70.1667 271.667,85.8333 271,101.5C 270.681,104.973 269.181,107.806 266.5,110C 248.257,111.64 229.924,111.973 211.5,111C 208,110.167 205.833,108 205,104.5C 204.333,87.1667 204.333,69.8333 205,52.5C 205.938,49.4025 207.772,47.0691 210.5,45.5 Z M 220.5,61.5 C 232.167,61.5 243.833,61.5 255.5,61.5C 255.5,72.8333 255.5,84.1667 255.5,95.5C 243.833,95.5 232.167,95.5 220.5,95.5C 220.5,84.1667 220.5,72.8333 220.5,61.5 Z"/></g>
<g><path style="opacity:0.938" fill="#000000" d="M 58.5,129.5 C 74.5035,129.333 90.5035,129.5 106.5,130C 110.115,130.614 112.949,132.447 115,135.5C 115.667,153.833 115.667,172.167 115,190.5C 113.749,193.381 111.583,195.214 108.5,196C 91.1667,196.667 73.8333,196.667 56.5,196C 54.4127,195.208 52.5793,194.041 51,192.5C 49.3597,173.924 49.0264,155.257 50,136.5C 51.8659,132.784 54.6992,130.45 58.5,129.5 Z M 65.5,145.5 C 65.5,157.167 65.5,168.833 65.5,180.5C 76.8333,180.5 88.1667,180.5 99.5,180.5C 99.5,168.833 99.5,157.167 99.5,145.5C 88.1667,145.5 76.8333,145.5 65.5,145.5 Z"/></g>
<g><path style="opacity:0.935" fill="#000000" d="M 136.5,129.5 C 152.503,129.333 168.503,129.5 184.5,130C 187.548,130.606 190.048,132.106 192,134.5C 193.627,152.768 193.96,171.101 193,189.5C 191.878,191.624 190.378,193.457 188.5,195C 170.591,196.639 152.591,196.973 134.5,196C 130.258,194.755 127.758,191.922 127,187.5C 126.333,171.167 126.333,154.833 127,138.5C 128.129,133.201 131.296,130.201 136.5,129.5 Z M 142.5,145.5 C 142.5,157.167 142.5,168.833 142.5,180.5C 154.167,180.5 165.833,180.5 177.5,180.5C 177.5,168.833 177.5,157.167 177.5,145.5C 165.833,145.5 154.167,145.5 142.5,145.5 Z"/></g>
<g><path style="opacity:0.935" fill="#000000" d="M 213.5,129.5 C 229.503,129.333 245.503,129.5 261.5,130C 267.333,130.5 270.5,133.667 271,139.5C 271.667,155.167 271.667,170.833 271,186.5C 270.681,189.973 269.181,192.806 266.5,195C 248.232,196.627 229.899,196.96 211.5,196C 208.333,194.833 206.167,192.667 205,189.5C 204.333,171.833 204.333,154.167 205,136.5C 206.851,132.843 209.684,130.51 213.5,129.5 Z M 220.5,145.5 C 220.5,157.167 220.5,168.833 220.5,180.5C 232.167,180.5 243.833,180.5 255.5,180.5C 255.5,168.833 255.5,157.167 255.5,145.5C 243.833,145.5 232.167,145.5 220.5,145.5 Z"/></g>
<g><path style="opacity:0.905" fill="#000000" d="M 149.5,455.5 C 156.508,455.334 163.508,455.5 170.5,456C 175.102,458.038 176.936,461.538 176,466.5C 175.167,468.667 173.667,470.167 171.5,471C 163.833,471.667 156.167,471.667 148.5,471C 142.277,465.631 142.61,460.465 149.5,455.5 Z"/></g>
</svg>
