
<svg xmlns="http://www.w3.org/2000/svg" version="1.1" width="512px" height="512px" style="shape-rendering:geometricPrecision; text-rendering:geometricPrecision; image-rendering:optimizeQuality; fill-rule:evenodd; clip-rule:evenodd" xmlns:xlink="http://www.w3.org/1999/xlink">
<g><path style="opacity:0.984" fill="#000000" d="M 304.5,-0.5 C 307.167,-0.5 309.833,-0.5 312.5,-0.5C 312.5,13.5 312.5,27.5 312.5,41.5C 365.501,41.3333 418.501,41.5 471.5,42C 489,44.8333 499.167,55 502,72.5C 502.667,194.167 502.667,315.833 502,437.5C 499.933,452.9 491.433,462.733 476.5,467C 421.834,467.5 367.168,467.667 312.5,467.5C 312.5,482.167 312.5,496.833 312.5,511.5C 309.833,511.5 307.167,511.5 304.5,511.5C 206.012,497.52 107.345,483.854 8.5,470.5C 8.5,326.833 8.5,183.167 8.5,39.5C 107.334,26.4275 206,13.0942 304.5,-0.5 Z M 312.5,61.5 C 365.501,61.3333 418.501,61.5 471.5,62C 477,63.5 480.5,67 482,72.5C 482.667,194.167 482.667,315.833 482,437.5C 480.298,443.864 476.132,447.364 469.5,448C 417.168,448.5 364.834,448.667 312.5,448.5C 312.5,319.5 312.5,190.5 312.5,61.5 Z M 383.5,171.5 C 399.129,170.954 405.629,178.287 403,193.5C 397.549,203.303 389.716,205.803 379.5,201C 370.963,193.732 369.796,185.565 376,176.5C 378.426,174.548 380.926,172.881 383.5,171.5 Z M 212.5,198.5 C 224.547,198.135 236.547,198.635 248.5,200C 277.653,208.099 289.819,227.266 285,257.5C 278.81,284.005 261.977,297.838 234.5,299C 221.458,299.593 208.458,299.093 195.5,297.5C 195.5,265.167 195.5,232.833 195.5,200.5C 201.373,200.404 207.04,199.737 212.5,198.5 Z M 146.5,200.5 C 148.5,200.5 150.5,200.5 152.5,200.5C 161.757,232.607 171.424,264.607 181.5,296.5C 174.163,297.539 166.829,297.373 159.5,296C 156.623,287.993 154.29,279.826 152.5,271.5C 143.143,271.168 133.81,271.502 124.5,272.5C 122.088,280.067 120.088,287.734 118.5,295.5C 111.833,295.5 105.167,295.5 98.5,295.5C 107.031,264.378 116.031,233.378 125.5,202.5C 132.655,201.833 139.655,201.167 146.5,200.5 Z M 64.5,201.5 C 72.7129,200.99 80.7129,201.99 88.5,204.5C 88.8112,209.952 87.8112,215.286 85.5,220.5C 72.9664,215.702 61.2997,217.202 50.5,225C 40.4308,239.817 39.9308,254.984 49,270.5C 54.7708,276.705 61.9375,279.705 70.5,279.5C 75.8816,279.41 81.0483,278.41 86,276.5C 87.1991,281.812 87.8658,287.146 88,292.5C 68.363,299.038 50.6963,295.705 35,282.5C 20.9254,261.936 20.2588,240.936 33,219.5C 41.0855,209.209 51.5855,203.209 64.5,201.5 Z"/></g>
<g><path style="opacity:0.928" fill="#000000" d="M 384.5,134.5 C 386.833,134.5 389.167,134.5 391.5,134.5C 391.5,144.167 391.5,153.833 391.5,163.5C 404.837,165.843 411.837,173.843 412.5,187.5C 412.519,190.812 411.852,193.979 410.5,197C 414.598,207.795 418.598,218.628 422.5,229.5C 426.445,230.491 430.445,230.824 434.5,230.5C 434.5,227.833 434.5,225.167 434.5,222.5C 436.5,222.5 438.5,222.5 440.5,222.5C 440.5,230.167 440.5,237.833 440.5,245.5C 438.5,245.5 436.5,245.5 434.5,245.5C 434.5,242.5 434.5,239.5 434.5,236.5C 431.5,236.5 428.5,236.5 425.5,236.5C 431.224,252.836 437.057,269.169 443,285.5C 443.764,291.04 443.597,296.54 442.5,302C 445.4,313.085 447.566,324.252 449,335.5C 443.667,326.167 438.333,316.833 433,307.5C 429,303.5 425,299.5 421,295.5C 410.716,268.64 400.049,241.974 389,215.5C 378.529,242.579 367.863,269.579 357,296.5C 345.457,307.245 336.623,319.912 330.5,334.5C 329.998,335.521 329.332,335.688 328.5,335C 333.665,319.529 335.831,303.696 335,287.5C 340.889,270.724 347.055,254.058 353.5,237.5C 350.232,236.513 346.898,236.18 343.5,236.5C 343.5,239.5 343.5,242.5 343.5,245.5C 341.5,245.5 339.5,245.5 337.5,245.5C 337.5,237.833 337.5,230.167 337.5,222.5C 339.5,222.5 341.5,222.5 343.5,222.5C 343.5,225.167 343.5,227.833 343.5,230.5C 347.833,230.5 352.167,230.5 356.5,230.5C 359.536,220.754 362.87,211.087 366.5,201.5C 358.79,182.262 364.623,169.262 384,162.5C 384.5,153.173 384.666,143.839 384.5,134.5 Z M 383.5,171.5 C 380.926,172.881 378.426,174.548 376,176.5C 369.796,185.565 370.963,193.732 379.5,201C 389.716,205.803 397.549,203.303 403,193.5C 405.629,178.287 399.129,170.954 383.5,171.5 Z"/></g>
<g><path style="opacity:0.874" fill="#000000" d="M 387.5,178.5 C 396.34,180.201 398.84,185.201 395,193.5C 390.018,197.588 385.351,197.254 381,192.5C 378.085,185.334 380.252,180.667 387.5,178.5 Z"/></g>
<g><path style="opacity:0.963" fill="#000000" d="M 222.5,214.5 C 252.76,213.932 265.26,228.599 260,258.5C 257.074,271.759 248.907,279.592 235.5,282C 229.509,282.499 223.509,282.666 217.5,282.5C 217.5,260.167 217.5,237.833 217.5,215.5C 219.415,215.784 221.081,215.451 222.5,214.5 Z"/></g>
<g><path style="opacity:0.866" fill="#000000" d="M 137.5,216.5 C 141.94,229.505 145.606,242.838 148.5,256.5C 141.5,256.5 134.5,256.5 127.5,256.5C 131.047,243.198 134.38,229.864 137.5,216.5 Z"/></g>
</svg>
