
<svg xmlns="http://www.w3.org/2000/svg" version="1.1" width="657px" height="554px" style="shape-rendering:geometricPrecision; text-rendering:geometricPrecision; image-rendering:optimizeQuality; fill-rule:evenodd; clip-rule:evenodd" xmlns:xlink="http://www.w3.org/1999/xlink">
<g><path style="opacity:0.929" fill="#000000" d="M 70.5,56.5 C 243.5,56.3333 416.5,56.5 589.5,57C 607.691,60.1919 619.191,70.6919 624,88.5C 624.178,108.543 624.678,128.543 625.5,148.5C 624.669,251.793 624.169,355.127 624,458.5C 619.2,476.299 607.7,486.799 589.5,490C 416.5,490.667 243.5,490.667 70.5,490C 50.6667,486.167 38.8333,474.333 35,454.5C 34.3333,333.833 34.3333,213.167 35,92.5C 39.0225,72.6449 50.8558,60.6449 70.5,56.5 Z M 76.5,70.5 C 245.5,70.3333 414.5,70.5 583.5,71C 597.424,71.926 606.257,79.0927 610,92.5C 610.5,108.83 610.667,125.163 610.5,141.5C 423.5,141.5 236.5,141.5 49.5,141.5C 49.041,123.764 49.541,106.098 51,88.5C 56.0592,77.4051 64.5592,71.4051 76.5,70.5 Z M 235.5,94.5 C 244.336,93.5076 249.67,97.3409 251.5,106C 249.018,116.838 242.684,120.171 232.5,116C 225.159,107.553 226.159,100.386 235.5,94.5 Z M 325.5,94.5 C 338.706,93.8661 343.54,99.8661 340,112.5C 333.333,120.5 326.667,120.5 320,112.5C 316.467,104.928 318.3,98.928 325.5,94.5 Z M 416.5,94.5 C 425.336,93.5076 430.67,97.3409 432.5,106C 431.764,113.238 427.764,117.404 420.5,118.5C 409.513,115.527 406.347,108.86 411,98.5C 412.812,97.0229 414.645,95.6896 416.5,94.5 Z M 49.5,155.5 C 236.5,155.5 423.5,155.5 610.5,155.5C 610.667,255.167 610.5,354.834 610,454.5C 607.265,464.902 600.765,471.736 590.5,475C 416.833,475.667 243.167,475.667 69.5,475C 59.6667,471.833 53.1667,465.333 50,455.5C 49.5,355.501 49.3333,255.501 49.5,155.5 Z M 324.5,193.5 C 330.245,193.211 335.912,193.711 341.5,195C 376.653,211.744 411.653,228.744 446.5,246C 412.808,263.179 378.808,279.846 344.5,296C 336.328,298.399 327.994,299.066 319.5,298C 283.948,281.056 248.615,263.89 213.5,246.5C 221.48,241.507 229.813,237.007 238.5,233C 262.955,221.606 287.288,209.939 311.5,198C 315.846,196.164 320.179,194.664 324.5,193.5 Z M 265.5,289.5 C 281.373,296.101 297.039,303.268 312.5,311C 324.593,314.437 336.593,314.104 348.5,310C 363.13,303.069 377.797,296.235 392.5,289.5C 410.77,297.635 428.77,306.302 446.5,315.5C 438.52,320.493 430.187,324.993 421.5,329C 397.045,340.394 372.712,352.061 348.5,364C 339.908,368.019 330.908,369.353 321.5,368C 285.146,351.657 249.146,334.49 213.5,316.5C 213.977,315.522 214.643,314.689 215.5,314C 232.381,306.059 249.048,297.892 265.5,289.5 Z M 266.5,358.5 C 281.474,365.653 296.474,372.82 311.5,380C 323.478,383.269 335.478,383.269 347.5,380C 362.406,373.297 377.239,366.463 392,359.5C 410.74,367.416 429.24,375.916 447.5,385C 413.808,402.179 379.808,418.846 345.5,435C 338.378,437.692 331.045,438.692 323.5,438C 286.163,421.5 249.163,404.166 212.5,386C 230.405,376.548 248.405,367.381 266.5,358.5 Z"/></g>
<g><path style="opacity:0.915" fill="#000000" d="M 236.5,79.5 C 260.733,81.9544 269.566,94.9544 263,118.5C 253.591,132.52 241.091,136.02 225.5,129C 214.988,121.478 211.155,111.311 214,98.5C 218.065,87.9236 225.565,81.5902 236.5,79.5 Z M 235.5,94.5 C 226.159,100.386 225.159,107.553 232.5,116C 242.684,120.171 249.018,116.838 251.5,106C 249.67,97.3409 244.336,93.5076 235.5,94.5 Z"/></g>
<g><path style="opacity:0.91" fill="#000000" d="M 326.5,79.5 C 346.792,79.9573 356.625,90.2907 356,110.5C 351.632,127.276 340.799,134.443 323.5,132C 308.484,126.805 301.984,116.305 304,100.5C 307.214,88.7826 314.714,81.7826 326.5,79.5 Z M 325.5,94.5 C 318.3,98.928 316.467,104.928 320,112.5C 326.667,120.5 333.333,120.5 340,112.5C 343.54,99.8661 338.706,93.8661 325.5,94.5 Z"/></g>
<g><path style="opacity:0.911" fill="#000000" d="M 417.5,79.5 C 441.733,81.9544 450.566,94.9544 444,118.5C 433.248,133.755 419.748,136.589 403.5,127C 391.47,114.527 390.637,101.36 401,87.5C 405.868,83.3147 411.368,80.648 417.5,79.5 Z M 416.5,94.5 C 414.645,95.6896 412.812,97.0229 411,98.5C 406.347,108.86 409.513,115.527 420.5,118.5C 427.764,117.404 431.764,113.238 432.5,106C 430.67,97.3409 425.336,93.5076 416.5,94.5 Z"/></g>
<g><path style="opacity:0.884" fill="#000000" d="M 87.5,98.5 C 113.502,98.3334 139.502,98.5 165.5,99C 171.059,100.458 172.892,103.958 171,109.5C 169.786,111.049 168.286,112.215 166.5,113C 139.833,113.667 113.167,113.667 86.5,113C 81.8567,110.928 80.3567,107.428 82,102.5C 83.4998,100.531 85.3331,99.198 87.5,98.5 Z"/></g>
<g><path style="opacity:0.881" fill="#000000" d="M 493.5,98.5 C 519.835,98.3334 546.169,98.5 572.5,99C 578.292,101.09 579.792,104.924 577,110.5C 576.097,111.701 574.931,112.535 573.5,113C 546.5,113.667 519.5,113.667 492.5,113C 489.317,111.982 487.984,109.815 488.5,106.5C 488.188,102.499 489.855,99.8319 493.5,98.5 Z"/></g>
<g><path style="opacity:0.913" fill="#000000" d="M 320.5,179.5 C 329.994,178.895 339.328,179.729 348.5,182C 383.833,199 419.167,216 454.5,233C 461.972,238.773 463.472,245.94 459,254.5C 457.5,256 456,257.5 454.5,259C 439.654,266.59 424.654,273.923 409.5,281C 424.833,288.333 440.167,295.667 455.5,303C 463.132,310.644 463.466,318.644 456.5,327C 441.323,335.089 425.99,342.922 410.5,350.5C 426.323,358.245 441.99,366.245 457.5,374.5C 464.263,384.926 462.263,393.426 451.5,400C 415.528,417.82 379.195,434.82 342.5,451C 330.487,453.687 318.82,452.687 307.5,448C 273.5,431.667 239.5,415.333 205.5,399C 196.878,392.997 195.378,385.497 201,376.5C 203.074,374.548 205.241,372.715 207.5,371C 221.5,364.333 235.5,357.667 249.5,351C 234.198,343.349 218.864,335.682 203.5,328C 195.194,319.096 195.861,310.763 205.5,303C 220.167,295.667 234.833,288.333 249.5,281C 233.29,273.377 217.29,265.377 201.5,257C 195.023,246.744 197.023,238.41 207.5,232C 237.955,217.606 268.289,202.939 298.5,188C 305.609,184.267 312.942,181.433 320.5,179.5 Z M 324.5,193.5 C 320.179,194.664 315.846,196.164 311.5,198C 287.288,209.939 262.955,221.606 238.5,233C 229.813,237.007 221.48,241.507 213.5,246.5C 248.615,263.89 283.948,281.056 319.5,298C 327.994,299.066 336.328,298.399 344.5,296C 378.808,279.846 412.808,263.179 446.5,246C 411.653,228.744 376.653,211.744 341.5,195C 335.912,193.711 330.245,193.211 324.5,193.5 Z M 265.5,289.5 C 249.048,297.892 232.381,306.059 215.5,314C 214.643,314.689 213.977,315.522 213.5,316.5C 249.146,334.49 285.146,351.657 321.5,368C 330.908,369.353 339.908,368.019 348.5,364C 372.712,352.061 397.045,340.394 421.5,329C 430.187,324.993 438.52,320.493 446.5,315.5C 428.77,306.302 410.77,297.635 392.5,289.5C 377.797,296.235 363.13,303.069 348.5,310C 336.593,314.104 324.593,314.437 312.5,311C 297.039,303.268 281.373,296.101 265.5,289.5 Z M 266.5,358.5 C 248.405,367.381 230.405,376.548 212.5,386C 249.163,404.166 286.163,421.5 323.5,438C 331.045,438.692 338.378,437.692 345.5,435C 379.808,418.846 413.808,402.179 447.5,385C 429.24,375.916 410.74,367.416 392,359.5C 377.239,366.463 362.406,373.297 347.5,380C 335.478,383.269 323.478,383.269 311.5,380C 296.474,372.82 281.474,365.653 266.5,358.5 Z"/></g>
</svg>
