
<svg xmlns="http://www.w3.org/2000/svg" version="1.1" width="512px" height="512px" style="shape-rendering:geometricPrecision; text-rendering:geometricPrecision; image-rendering:optimizeQuality; fill-rule:evenodd; clip-rule:evenodd" xmlns:xlink="http://www.w3.org/1999/xlink">
<g><path style="opacity:0.935" fill="#000000" d="M 207.5,-0.5 C 214.5,-0.5 221.5,-0.5 228.5,-0.5C 239.627,1.98072 248.793,7.64739 256,16.5C 262.906,7.74862 271.739,2.08196 282.5,-0.5C 289.5,-0.5 296.5,-0.5 303.5,-0.5C 320.148,4.13353 333.148,13.8002 342.5,28.5C 367.865,20.8982 388.032,27.8982 403,49.5C 407.294,57.5141 409.794,66.0141 410.5,75C 448.365,81.2042 468.365,103.538 470.5,142C 469.854,150.949 468.52,159.782 466.5,168.5C 491.279,177.402 506.279,194.735 511.5,220.5C 511.5,228.5 511.5,236.5 511.5,244.5C 508.801,256.902 503.634,268.236 496,278.5C 493.131,281.704 489.965,284.537 486.5,287C 499.581,297.837 505.915,311.837 505.5,329C 505.168,357.637 491.501,376.304 464.5,385C 471.6,408.829 468.1,430.996 454,451.5C 430.325,475.918 402.325,482.584 370,471.5C 361.271,493.405 345.438,506.738 322.5,511.5C 314.833,511.5 307.167,511.5 299.5,511.5C 280.203,506.923 265.703,495.923 256,478.5C 246.109,496.193 231.276,507.193 211.5,511.5C 203.833,511.5 196.167,511.5 188.5,511.5C 165.562,506.738 149.729,493.405 141,471.5C 108.675,482.584 80.6745,475.918 57,451.5C 42.9003,430.999 39.4003,408.832 46.5,385C 27.2269,379.729 14.3936,367.563 8,348.5C 1.89067,328.154 5.224,309.488 18,292.5C 19.8734,290.291 22.04,288.458 24.5,287C 17.1464,281.456 11.3131,274.623 7,266.5C 3.7647,259.292 1.2647,251.958 -0.5,244.5C -0.5,236.5 -0.5,228.5 -0.5,220.5C 4.7749,195.318 19.4416,177.985 43.5,168.5C 43.8333,167.833 44.1667,167.167 44.5,166.5C 35.6695,135.982 42.6695,109.815 65.5,88C 76.0858,80.9139 87.7525,76.5806 100.5,75C 104.747,41.4155 123.747,25.0822 157.5,26C 161.272,26.406 164.939,27.2393 168.5,28.5C 177.852,13.8002 190.852,4.13353 207.5,-0.5 Z M 217.5,15.5 C 231.543,16.0553 241.376,22.722 247,35.5C 247.667,158.167 247.667,280.833 247,403.5C 221.269,384.044 194.102,381.878 165.5,397C 160.167,402 160.167,407 165.5,412C 168.5,412.667 171.5,412.667 174.5,412C 189.966,403.119 205.966,401.785 222.5,408C 244.879,418.941 252.379,436.441 245,460.5C 232.633,490.269 211.133,500.436 180.5,491C 166.022,483.504 157.189,471.671 154,455.5C 152.079,453.133 149.579,451.8 146.5,451.5C 132.897,458.187 118.564,460.687 103.5,459C 75.8097,453.31 61.143,436.31 59.5,408C 60.7546,385.666 71.2546,369.166 91,358.5C 95.1334,350.728 92.9667,345.728 84.5,343.5C 72.189,347.999 62.5224,355.832 55.5,367C 49.3287,367.946 43.662,366.612 38.5,363C 20.9266,346.598 17.7599,327.765 29,306.5C 32.7467,302.082 37.0801,298.416 42,295.5C 53.2617,299.392 64.7617,300.225 76.5,298C 82.747,293.486 83.0804,288.486 77.5,283C 63.1188,283.757 49.4521,281.091 36.5,275C 19.0319,259.99 12.8652,241.157 18,218.5C 24.9228,197.917 39.0894,185.417 60.5,181C 63.267,179.317 64.9337,176.817 65.5,173.5C 57.2269,155.492 56.3936,137.158 63,118.5C 67.8929,107.941 75.7262,100.441 86.5,96C 95.7176,93.4881 105.051,91.8214 114.5,91C 118.499,87.0483 119.499,82.3816 117.5,77C 121.58,49.247 137.247,38.5804 164.5,45C 164.989,52.6524 166.489,60.1524 169,67.5C 173.862,73.1585 178.862,73.4918 184,68.5C 184.923,66.9656 185.423,65.299 185.5,63.5C 182.182,54.681 181.682,45.681 184,36.5C 192.014,24.254 203.181,17.254 217.5,15.5 Z M 292.5,15.5 C 310.871,17.692 323.705,27.3587 331,44.5C 333.995,47.2648 337.495,48.0981 341.5,47C 370.874,36.3494 388.207,46.3494 393.5,77C 391.501,82.3816 392.501,87.0483 396.5,91C 405.949,91.8214 415.282,93.4881 424.5,96C 443.67,105.203 453.003,120.537 452.5,142C 452.613,153.048 450.279,163.548 445.5,173.5C 445.899,175.197 446.399,176.863 447,178.5C 453.54,181.906 460.373,184.739 467.5,187C 492.377,202.956 500.21,225.123 491,253.5C 485.054,265.779 476.054,275.112 464,281.5C 462,285.167 462,288.833 464,292.5C 489.9,307.42 495.566,328.086 481,354.5C 473.056,364.887 462.556,369.387 449.5,368C 444.931,370.541 443.431,374.375 445,379.5C 452.657,398.361 452.323,417.028 444,435.5C 430.385,454.385 411.885,462.218 388.5,459C 380.209,457.403 372.209,454.903 364.5,451.5C 361.421,451.8 358.921,453.133 357,455.5C 349.755,484.11 331.589,496.943 302.5,494C 283.777,489.611 271.944,478.111 267,459.5C 264.824,446.263 263.991,432.929 264.5,419.5C 277.504,419.333 290.504,419.5 303.5,420C 312.848,437.559 326.515,441.893 344.5,433C 359.167,418.667 359.167,404.333 344.5,390C 326.472,381.122 312.805,385.455 303.5,403C 290.504,403.5 277.504,403.667 264.5,403.5C 264.5,375.5 264.5,347.5 264.5,319.5C 282.503,319.333 300.503,319.5 318.5,320C 325.086,322.805 331.753,325.305 338.5,327.5C 335.581,353.376 346.581,369.543 371.5,376C 402.161,376.338 416.995,361.172 416,330.5C 409.279,306.47 393.446,295.97 368.5,299C 359.577,301.368 352.077,305.868 346,312.5C 337.889,309.195 329.722,306.028 321.5,303C 302.503,302.5 283.503,302.333 264.5,302.5C 264.5,286.833 264.5,271.167 264.5,255.5C 303.5,255.5 342.5,255.5 381.5,255.5C 388.739,278.465 404.406,288.299 428.5,285C 452.653,276.534 462.153,259.7 457,234.5C 447.956,213.559 432.123,205.059 409.5,209C 394.132,213.199 384.799,223.033 381.5,238.5C 342.5,238.5 303.5,238.5 264.5,238.5C 264.5,223.167 264.5,207.833 264.5,192.5C 283.503,192.667 302.503,192.5 321.5,192C 329.667,188.833 337.833,185.667 346,182.5C 358.93,196.134 374.43,199.967 392.5,194C 412.216,184.064 419.716,168.23 415,146.5C 407.559,126.354 393.059,117.188 371.5,119C 354.662,122.169 343.829,132.002 339,148.5C 338.5,154.825 338.334,161.158 338.5,167.5C 331.753,169.695 325.086,172.195 318.5,175C 300.503,175.5 282.503,175.667 264.5,175.5C 264.5,149.5 264.5,123.5 264.5,97.5C 275.833,97.5 287.167,97.5 298.5,97.5C 303.392,110.127 312.725,115.96 326.5,115C 344.712,110.444 351.879,98.9436 348,80.5C 342.446,67.6337 332.613,61.8004 318.5,63C 308.25,64.9282 301.583,70.7616 298.5,80.5C 287.167,80.5 275.833,80.5 264.5,80.5C 264.333,66.8293 264.5,53.1626 265,39.5C 268.15,24.5117 277.317,16.5117 292.5,15.5 Z M 320.5,79.5 C 329.669,80.1464 333.169,84.8131 331,93.5C 325.667,100.167 320.333,100.167 315,93.5C 312.631,87.2311 314.464,82.5645 320.5,79.5 Z M 373.5,135.5 C 386.66,134.99 395.16,140.99 399,153.5C 399.511,172.32 390.344,180.82 371.5,179C 356.488,172.647 351.988,161.814 358,146.5C 361.962,141.023 367.129,137.356 373.5,135.5 Z M 416.5,224.5 C 437.316,226.476 444.816,237.476 439,257.5C 431.237,268.64 421.07,271.473 408.5,266C 396.923,257.753 394.423,247.253 401,234.5C 405.239,229.479 410.406,226.146 416.5,224.5 Z M 371.5,315.5 C 390.335,314.171 399.501,322.838 399,341.5C 392.916,357.975 381.75,362.808 365.5,356C 354.785,347.388 352.618,336.888 359,324.5C 362.651,320.609 366.818,317.609 371.5,315.5 Z M 325.5,402.5 C 335.157,401.658 338.99,405.991 337,415.5C 332.144,421.76 326.81,422.093 321,416.5C 318.606,410.517 320.106,405.851 325.5,402.5 Z"/></g>
<g><path style="opacity:0.925" fill="#000000" d="M 195.5,90.5 C 205.917,89.4643 215.917,90.9643 225.5,95C 229.787,100.357 229.453,105.357 224.5,110C 221.833,110.667 219.167,110.667 216.5,110C 207,105.726 197.667,106.393 188.5,112C 182.741,117.762 176.408,122.762 169.5,127C 150.776,135.306 135.609,131.139 124,114.5C 123.223,105.284 127.39,101.784 136.5,104C 146.111,116.658 156.778,117.658 168.5,107C 176.039,98.9069 185.039,93.4069 195.5,90.5 Z"/></g>
<g><path style="opacity:0.922" fill="#000000" d="M 189.5,136.5 C 208.251,137.086 220.084,146.419 225,164.5C 226.855,184.958 218.021,198.125 198.5,204C 190.149,206.815 184.816,204.149 182.5,196C 184.475,189.19 189.141,186.19 196.5,187C 209.878,179.686 211.878,170.019 202.5,158C 200.833,157 199.167,156 197.5,155C 193.115,154.46 188.949,153.293 185,151.5C 181.537,145.052 183.037,140.052 189.5,136.5 Z"/></g>
<g><path style="opacity:0.864" fill="#000000" d="M 373.5,149.5 C 384.559,149.054 387.892,153.888 383.5,164C 374.304,168.391 369.47,165.557 369,155.5C 369.804,152.854 371.304,150.854 373.5,149.5 Z"/></g>
<g><path style="opacity:0.927" fill="#000000" d="M 89.5,171.5 C 105.585,173.462 118.752,180.795 129,193.5C 135.947,202.061 140.781,211.728 143.5,222.5C 180.916,221.932 204.416,239.599 214,275.5C 214.896,280.949 214.563,286.282 213,291.5C 208.046,295.677 203.38,295.343 199,290.5C 195.561,254.051 175.728,237.884 139.5,242C 127.656,245.595 118.323,252.595 111.5,263C 104.207,265.915 99.8732,263.581 98.5,256C 99.944,250.119 102.944,245.119 107.5,241C 112.956,236.216 118.956,232.216 125.5,229C 126.059,228.275 126.392,227.442 126.5,226.5C 121.139,206.305 108.472,193.139 88.5,187C 83.0433,181.368 83.3766,176.201 89.5,171.5 Z"/></g>
<g><path style="opacity:0.871" fill="#000000" d="M 415.5,238.5 C 422.631,237.14 426.964,239.974 428.5,247C 427.563,252.268 424.396,255.102 419,255.5C 411.897,253.924 409.564,249.59 412,242.5C 413.376,241.295 414.542,239.962 415.5,238.5 Z"/></g>
<g><path style="opacity:0.923" fill="#000000" d="M 153.5,287.5 C 163.371,287.571 166.538,292.237 163,301.5C 148.657,310.199 144.99,322.199 152,337.5C 158.287,346.394 166.787,349.894 177.5,348C 181.302,346.68 185.135,345.513 189,344.5C 194.263,344.597 197.096,347.263 197.5,352.5C 197.321,355.191 196.321,357.525 194.5,359.5C 174.076,369.925 155.909,366.925 140,350.5C 128.667,333.167 128.667,315.833 140,298.5C 143.819,293.833 148.319,290.166 153.5,287.5 Z"/></g>
<g><path style="opacity:0.863" fill="#000000" d="M 375.5,328.5 C 384.008,328.833 387.175,333.166 385,341.5C 382.045,345.277 378.212,346.443 373.5,345C 368.699,341.887 367.532,337.72 370,332.5C 371.5,330.531 373.333,329.198 375.5,328.5 Z"/></g>
</svg>
