<svg xmlns="http://www.w3.org/2000/svg" version="1.1" width="128px" height="128px" style="shape-rendering:geometricPrecision; text-rendering:geometricPrecision; image-rendering:optimizeQuality; fill-rule:evenodd; clip-rule:evenodd" xmlns:xlink="http://www.w3.org/1999/xlink">
<g><path style="opacity:0.851" fill="#000000" d="M 3.5,1.5 C 13.4874,0.331938 16.154,4.16527 11.5,13C 1.43377,14.4671 -1.2329,10.6338 3.5,1.5 Z"/></g>
<g><path style="opacity:1" fill="#000000" d="M 61.5,1.5 C 70.8333,1.5 80.1667,1.5 89.5,1.5C 89.5,4.16667 89.5,6.83333 89.5,9.5C 90.8333,9.5 92.1667,9.5 93.5,9.5C 93.5,6.83333 93.5,4.16667 93.5,1.5C 102.833,1.5 112.167,1.5 121.5,1.5C 121.5,8.16667 121.5,14.8333 121.5,21.5C 112.167,21.5 102.833,21.5 93.5,21.5C 93.5,18.8333 93.5,16.1667 93.5,13.5C 92.1667,13.5 90.8333,13.5 89.5,13.5C 89.5,16.1667 89.5,18.8333 89.5,21.5C 80.1667,21.5 70.8333,21.5 61.5,21.5C 61.5,14.8333 61.5,8.16667 61.5,1.5 Z M 65.5,5.5 C 72.1667,5.5 78.8333,5.5 85.5,5.5C 85.5,9.5 85.5,13.5 85.5,17.5C 78.8333,17.5 72.1667,17.5 65.5,17.5C 65.5,13.5 65.5,9.5 65.5,5.5 Z M 97.5,5.5 C 104.167,5.5 110.833,5.5 117.5,5.5C 117.5,9.5 117.5,13.5 117.5,17.5C 110.833,17.5 104.167,17.5 97.5,17.5C 97.5,13.5 97.5,9.5 97.5,5.5 Z"/></g>
<g><path style="opacity:0.851" fill="#000000" d="M 47.5,5.5 C 57.4874,4.33194 60.154,8.16527 55.5,17C 45.4338,18.4671 42.7671,14.6338 47.5,5.5 Z"/></g>
<g><path style="opacity:1" fill="#000000" d="M 33.5,9.5 C 36.1667,9.5 38.8333,9.5 41.5,9.5C 41.5,10.8333 41.5,12.1667 41.5,13.5C 40.1667,13.5 38.8333,13.5 37.5,13.5C 37.5,18.1667 37.5,22.8333 37.5,27.5C 34.8333,27.5 32.1667,27.5 29.5,27.5C 29.5,30.8333 29.5,34.1667 29.5,37.5C 28.1667,37.5 26.8333,37.5 25.5,37.5C 25.5,32.8333 25.5,28.1667 25.5,23.5C 28.1667,23.5 30.8333,23.5 33.5,23.5C 33.5,18.8333 33.5,14.1667 33.5,9.5 Z"/></g>
<g><path style="opacity:1" fill="#000000" d="M 69.5,9.5 C 70.8333,9.5 72.1667,9.5 73.5,9.5C 73.5,10.8333 73.5,12.1667 73.5,13.5C 72.1667,13.5 70.8333,13.5 69.5,13.5C 69.5,12.1667 69.5,10.8333 69.5,9.5 Z"/></g>
<g><path style="opacity:1" fill="#000000" d="M 77.5,9.5 C 78.8333,9.5 80.1667,9.5 81.5,9.5C 81.5,10.8333 81.5,12.1667 81.5,13.5C 80.1667,13.5 78.8333,13.5 77.5,13.5C 77.5,12.1667 77.5,10.8333 77.5,9.5 Z"/></g>
<g><path style="opacity:1" fill="#000000" d="M 101.5,9.5 C 102.833,9.5 104.167,9.5 105.5,9.5C 105.5,10.8333 105.5,12.1667 105.5,13.5C 104.167,13.5 102.833,13.5 101.5,13.5C 101.5,12.1667 101.5,10.8333 101.5,9.5 Z"/></g>
<g><path style="opacity:1" fill="#000000" d="M 109.5,9.5 C 110.833,9.5 112.167,9.5 113.5,9.5C 113.5,10.8333 113.5,12.1667 113.5,13.5C 112.167,13.5 110.833,13.5 109.5,13.5C 109.5,12.1667 109.5,10.8333 109.5,9.5 Z"/></g>
<g><path style="opacity:1" fill="#000000" d="M 5.5,15.5 C 6.83333,15.5 8.16667,15.5 9.5,15.5C 9.5,19.5 9.5,23.5 9.5,27.5C 13.5,27.5 17.5,27.5 21.5,27.5C 21.5,30.8333 21.5,34.1667 21.5,37.5C 20.1667,37.5 18.8333,37.5 17.5,37.5C 17.5,35.5 17.5,33.5 17.5,31.5C 13.5,31.5 9.5,31.5 5.5,31.5C 5.5,26.1667 5.5,20.8333 5.5,15.5 Z"/></g>
<g><path style="opacity:1" fill="#000000" d="M 105.5,25.5 C 106.833,25.5 108.167,25.5 109.5,25.5C 109.5,34.8333 109.5,44.1667 109.5,53.5C 108.167,53.5 106.833,53.5 105.5,53.5C 105.5,44.1667 105.5,34.8333 105.5,25.5 Z"/></g>
<g><path style="opacity:1" fill="#000000" d="M 117.5,25.5 C 118.833,25.5 120.167,25.5 121.5,25.5C 121.5,30.8333 121.5,36.1667 121.5,41.5C 120.167,41.5 118.833,41.5 117.5,41.5C 117.5,36.1667 117.5,30.8333 117.5,25.5 Z"/></g>
<g><path style="opacity:0.993" fill="#000000" d="M 41.5,29.5 C 42.8333,29.5 44.1667,29.5 45.5,29.5C 45.5,32.1667 45.5,34.8333 45.5,37.5C 46.8333,37.5 48.1667,37.5 49.5,37.5C 49.5,34.8333 49.5,32.1667 49.5,29.5C 50.8333,29.5 52.1667,29.5 53.5,29.5C 53.5,32.1667 53.5,34.8333 53.5,37.5C 54.8333,37.5 56.1667,37.5 57.5,37.5C 57.5,34.8333 57.5,32.1667 57.5,29.5C 58.8333,29.5 60.1667,29.5 61.5,29.5C 61.5,32.1667 61.5,34.8333 61.5,37.5C 62.8333,37.5 64.1667,37.5 65.5,37.5C 65.5,34.8333 65.5,32.1667 65.5,29.5C 66.8333,29.5 68.1667,29.5 69.5,29.5C 69.5,32.1667 69.5,34.8333 69.5,37.5C 70.8333,37.5 72.1667,37.5 73.5,37.5C 73.5,34.8333 73.5,32.1667 73.5,29.5C 74.8333,29.5 76.1667,29.5 77.5,29.5C 77.5,32.1667 77.5,34.8333 77.5,37.5C 78.8333,37.5 80.1667,37.5 81.5,37.5C 81.5,34.8333 81.5,32.1667 81.5,29.5C 82.8333,29.5 84.1667,29.5 85.5,29.5C 85.5,32.1667 85.5,34.8333 85.5,37.5C 88.5,37.1667 89.8333,38.5 89.5,41.5C 92.1667,41.5 94.8333,41.5 97.5,41.5C 97.5,42.8333 97.5,44.1667 97.5,45.5C 94.8333,45.5 92.1667,45.5 89.5,45.5C 89.5,46.8333 89.5,48.1667 89.5,49.5C 92.1667,49.5 94.8333,49.5 97.5,49.5C 97.5,50.8333 97.5,52.1667 97.5,53.5C 94.8333,53.5 92.1667,53.5 89.5,53.5C 89.5,54.8333 89.5,56.1667 89.5,57.5C 92.1667,57.5 94.8333,57.5 97.5,57.5C 97.5,58.8333 97.5,60.1667 97.5,61.5C 94.8333,61.5 92.1667,61.5 89.5,61.5C 89.5,62.8333 89.5,64.1667 89.5,65.5C 92.1667,65.5 94.8333,65.5 97.5,65.5C 97.5,66.8333 97.5,68.1667 97.5,69.5C 94.8333,69.5 92.1667,69.5 89.5,69.5C 89.5,70.8333 89.5,72.1667 89.5,73.5C 92.1667,73.5 94.8333,73.5 97.5,73.5C 97.5,74.8333 97.5,76.1667 97.5,77.5C 94.8333,77.5 92.1667,77.5 89.5,77.5C 89.5,78.8333 89.5,80.1667 89.5,81.5C 92.1667,81.5 94.8333,81.5 97.5,81.5C 97.5,82.8333 97.5,84.1667 97.5,85.5C 94.8333,85.5 92.1667,85.5 89.5,85.5C 89.8333,88.5 88.5,89.8333 85.5,89.5C 85.5,92.1667 85.5,94.8333 85.5,97.5C 84.1667,97.5 82.8333,97.5 81.5,97.5C 81.5,94.8333 81.5,92.1667 81.5,89.5C 80.1667,89.5 78.8333,89.5 77.5,89.5C 77.5,92.1667 77.5,94.8333 77.5,97.5C 76.1667,97.5 74.8333,97.5 73.5,97.5C 73.5,94.8333 73.5,92.1667 73.5,89.5C 72.1667,89.5 70.8333,89.5 69.5,89.5C 69.5,92.1667 69.5,94.8333 69.5,97.5C 68.1667,97.5 66.8333,97.5 65.5,97.5C 65.5,94.8333 65.5,92.1667 65.5,89.5C 64.1667,89.5 62.8333,89.5 61.5,89.5C 61.5,92.1667 61.5,94.8333 61.5,97.5C 60.1667,97.5 58.8333,97.5 57.5,97.5C 57.5,94.8333 57.5,92.1667 57.5,89.5C 56.1667,89.5 54.8333,89.5 53.5,89.5C 53.5,92.1667 53.5,94.8333 53.5,97.5C 52.1667,97.5 50.8333,97.5 49.5,97.5C 49.5,94.8333 49.5,92.1667 49.5,89.5C 48.1667,89.5 46.8333,89.5 45.5,89.5C 45.5,92.1667 45.5,94.8333 45.5,97.5C 44.1667,97.5 42.8333,97.5 41.5,97.5C 41.5,94.8333 41.5,92.1667 41.5,89.5C 38.5,89.8333 37.1667,88.5 37.5,85.5C 34.8333,85.5 32.1667,85.5 29.5,85.5C 29.5,84.1667 29.5,82.8333 29.5,81.5C 32.1667,81.5 34.8333,81.5 37.5,81.5C 37.5,80.1667 37.5,78.8333 37.5,77.5C 34.8333,77.5 32.1667,77.5 29.5,77.5C 29.5,76.1667 29.5,74.8333 29.5,73.5C 32.1667,73.5 34.8333,73.5 37.5,73.5C 37.5,72.1667 37.5,70.8333 37.5,69.5C 34.8333,69.5 32.1667,69.5 29.5,69.5C 29.5,68.1667 29.5,66.8333 29.5,65.5C 32.1667,65.5 34.8333,65.5 37.5,65.5C 37.5,64.1667 37.5,62.8333 37.5,61.5C 34.8333,61.5 32.1667,61.5 29.5,61.5C 29.5,60.1667 29.5,58.8333 29.5,57.5C 32.1667,57.5 34.8333,57.5 37.5,57.5C 37.5,56.1667 37.5,54.8333 37.5,53.5C 34.8333,53.5 32.1667,53.5 29.5,53.5C 29.5,52.1667 29.5,50.8333 29.5,49.5C 32.1667,49.5 34.8333,49.5 37.5,49.5C 37.5,48.1667 37.5,46.8333 37.5,45.5C 34.8333,45.5 32.1667,45.5 29.5,45.5C 29.5,44.1667 29.5,42.8333 29.5,41.5C 32.1667,41.5 34.8333,41.5 37.5,41.5C 37.1667,38.5 38.5,37.1667 41.5,37.5C 41.5,34.8333 41.5,32.1667 41.5,29.5 Z M 41.5,41.5 C 56.1667,41.5 70.8333,41.5 85.5,41.5C 85.5,56.1667 85.5,70.8333 85.5,85.5C 70.8333,85.5 56.1667,85.5 41.5,85.5C 41.5,70.8333 41.5,56.1667 41.5,41.5 Z"/></g>
<g><path style="opacity:1" fill="#000000" d="M 17.5,41.5 C 18.8333,41.5 20.1667,41.5 21.5,41.5C 21.5,44.8333 21.5,48.1667 21.5,51.5C 17.5,51.5 13.5,51.5 9.5,51.5C 9.5,60.1667 9.5,68.8333 9.5,77.5C 8.16667,77.5 6.83333,77.5 5.5,77.5C 5.5,67.5 5.5,57.5 5.5,47.5C 9.5,47.5 13.5,47.5 17.5,47.5C 17.5,45.5 17.5,43.5 17.5,41.5 Z"/></g>
<g><path style="opacity:0.851" fill="#000000" d="M 71.5,45.5 C 81.4874,44.3319 84.154,48.1653 79.5,57C 69.4338,58.4671 66.7671,54.6338 71.5,45.5 Z"/></g>
<g><path style="opacity:0.851" fill="#000000" d="M 115.5,45.5 C 125.487,44.3319 128.154,48.1653 123.5,57C 113.434,58.4671 110.767,54.6338 115.5,45.5 Z"/></g>
<g><path style="opacity:1" fill="#000000" d="M 49.5,49.5 C 54.8333,49.5 60.1667,49.5 65.5,49.5C 65.5,50.8333 65.5,52.1667 65.5,53.5C 61.5,53.5 57.5,53.5 53.5,53.5C 53.5,57.5 53.5,61.5 53.5,65.5C 52.1667,65.5 50.8333,65.5 49.5,65.5C 49.5,60.1667 49.5,54.8333 49.5,49.5 Z"/></g>
<g><path style="opacity:0.851" fill="#000000" d="M 15.5,55.5 C 25.4874,54.3319 28.154,58.1653 23.5,67C 13.4338,68.4671 10.7671,64.6338 15.5,55.5 Z"/></g>
<g><path style="opacity:0.943" fill="#000000" d="M 103.5,57.5 C 106.187,57.3359 108.854,57.5026 111.5,58C 114.081,60.9878 117.414,62.1544 121.5,61.5C 121.5,77.5 121.5,93.5 121.5,109.5C 120.167,109.5 118.833,109.5 117.5,109.5C 117.5,94.8333 117.5,80.1667 117.5,65.5C 114.755,65.373 112.755,66.5397 111.5,69C 101.434,70.4671 98.7671,66.6338 103.5,57.5 Z"/></g>
<g><path style="opacity:1" fill="#000000" d="M 73.5,61.5 C 74.8333,61.5 76.1667,61.5 77.5,61.5C 77.5,66.8333 77.5,72.1667 77.5,77.5C 72.1667,77.5 66.8333,77.5 61.5,77.5C 61.5,76.1667 61.5,74.8333 61.5,73.5C 65.5,73.5 69.5,73.5 73.5,73.5C 73.5,69.5 73.5,65.5 73.5,61.5 Z"/></g>
<g><path style="opacity:0.851" fill="#000000" d="M 47.5,69.5 C 57.4874,68.3319 60.154,72.1653 55.5,81C 45.4338,82.4671 42.7671,78.6338 47.5,69.5 Z"/></g>
<g><path style="opacity:1" fill="#000000" d="M 17.5,71.5 C 18.8333,71.5 20.1667,71.5 21.5,71.5C 21.5,78.1667 21.5,84.8333 21.5,91.5C 20.1667,91.5 18.8333,91.5 17.5,91.5C 17.5,84.8333 17.5,78.1667 17.5,71.5 Z"/></g>
<g><path style="opacity:1" fill="#000000" d="M 105.5,73.5 C 106.833,73.5 108.167,73.5 109.5,73.5C 109.5,86.8333 109.5,100.167 109.5,113.5C 94.8333,113.5 80.1667,113.5 65.5,113.5C 65.5,112.167 65.5,110.833 65.5,109.5C 78.8333,109.5 92.1667,109.5 105.5,109.5C 105.5,97.5 105.5,85.5 105.5,73.5 Z"/></g>
<g><path style="opacity:0.851" fill="#000000" d="M 3.5,81.5 C 13.4874,80.3319 16.154,84.1653 11.5,93C 1.43377,94.4671 -1.2329,90.6338 3.5,81.5 Z"/></g>
<g><path style="opacity:1" fill="#000000" d="M 5.5,97.5 C 6.83333,97.5 8.16667,97.5 9.5,97.5C 9.5,98.8333 9.5,100.167 9.5,101.5C 10.8333,101.5 12.1667,101.5 13.5,101.5C 13.5,100.167 13.5,98.8333 13.5,97.5C 14.8333,97.5 16.1667,97.5 17.5,97.5C 17.5,98.8333 17.5,100.167 17.5,101.5C 18.8333,101.5 20.1667,101.5 21.5,101.5C 21.5,100.167 21.5,98.8333 21.5,97.5C 22.8333,97.5 24.1667,97.5 25.5,97.5C 25.5,98.8333 25.5,100.167 25.5,101.5C 26.8333,101.5 28.1667,101.5 29.5,101.5C 29.5,108.167 29.5,114.833 29.5,121.5C 28.1667,121.5 26.8333,121.5 25.5,121.5C 25.5,122.833 25.5,124.167 25.5,125.5C 24.1667,125.5 22.8333,125.5 21.5,125.5C 21.5,124.167 21.5,122.833 21.5,121.5C 20.1667,121.5 18.8333,121.5 17.5,121.5C 17.5,122.833 17.5,124.167 17.5,125.5C 16.1667,125.5 14.8333,125.5 13.5,125.5C 13.5,124.167 13.5,122.833 13.5,121.5C 12.1667,121.5 10.8333,121.5 9.5,121.5C 9.5,122.833 9.5,124.167 9.5,125.5C 8.16667,125.5 6.83333,125.5 5.5,125.5C 5.5,124.167 5.5,122.833 5.5,121.5C 4.16667,121.5 2.83333,121.5 1.5,121.5C 1.5,114.833 1.5,108.167 1.5,101.5C 2.83333,101.5 4.16667,101.5 5.5,101.5C 5.5,100.167 5.5,98.8333 5.5,97.5 Z M 5.5,105.5 C 12.1667,105.5 18.8333,105.5 25.5,105.5C 25.5,109.5 25.5,113.5 25.5,117.5C 18.8333,117.5 12.1667,117.5 5.5,117.5C 5.5,113.5 5.5,109.5 5.5,105.5 Z"/></g>
<g><path style="opacity:0.851" fill="#000000" d="M 35.5,105.5 C 45.4874,104.332 48.154,108.165 43.5,117C 33.4338,118.467 30.7671,114.634 35.5,105.5 Z"/></g>
<g><path style="opacity:0.851" fill="#000000" d="M 51.5,105.5 C 61.4874,104.332 64.154,108.165 59.5,117C 49.4338,118.467 46.7671,114.634 51.5,105.5 Z"/></g>
<g><path style="opacity:1" fill="#000000" d="M 9.5,109.5 C 10.8333,109.5 12.1667,109.5 13.5,109.5C 13.5,110.833 13.5,112.167 13.5,113.5C 12.1667,113.5 10.8333,113.5 9.5,113.5C 9.5,112.167 9.5,110.833 9.5,109.5 Z"/></g>
<g><path style="opacity:1" fill="#000000" d="M 17.5,109.5 C 18.8333,109.5 20.1667,109.5 21.5,109.5C 21.5,110.833 21.5,112.167 21.5,113.5C 20.1667,113.5 18.8333,113.5 17.5,113.5C 17.5,112.167 17.5,110.833 17.5,109.5 Z"/></g>
<g><path style="opacity:0.851" fill="#000000" d="M 115.5,113.5 C 125.487,112.332 128.154,116.165 123.5,125C 113.434,126.467 110.767,122.634 115.5,113.5 Z"/></g>
<g><path style="opacity:1" fill="#000000" d="M 81.5,117.5 C 90.8333,117.5 100.167,117.5 109.5,117.5C 109.5,118.833 109.5,120.167 109.5,121.5C 100.167,121.5 90.8333,121.5 81.5,121.5C 81.5,120.167 81.5,118.833 81.5,117.5 Z"/></g>
</svg>
